<svg xmlns="http://www.w3.org/2000/svg" xmlns:xlink="http://www.w3.org/1999/xlink" id="Layer_1" x="0px" y="0px" viewBox="0 0 360 360" style="enable-background:new 0 0 360 360;" xml:space="preserve"><style type="text/css">	.st0{fill:#8D1B41;}</style><path class="st0" d="M260.1,146c-0.2,13.2-12.1,37.9-20.3,37.8c-12.3-0.1-21.7-9.1-30.1-17.4c-7.9-7.9-12.8-17.6-9.6-29.3  c3.9-13.8,19.1-21.2,36.7-18.2C251.8,121.4,260.3,131.3,260.1,146z"></path><path class="st0" d="M329.9,80.3c-43.3,0.3-102.3,0.1-141.6,0.1c-4.8,0-9.8,0.6-14.3-0.6c-2.7-0.8-5.8-4.4-6.4-7.2  c-0.9-4.6,2.2-8,7.1-8.4c4.2-0.4,8.4-0.3,12.6-0.3c36.7,0,90.2,0,130.2,0C284.5,24.8,235.2,0,180,0C80.6,0,0,80.6,0,180  C0,262,54.9,331.3,130,353c0.1-39.4-0.1-94.5,0.2-131.8c0.1-7.4-2.8-9.2-9.5-9.1c-19.8,0.3-39.6,0.1-59.4,0.3  c-4.4,0-8.5-0.3-10.1-5.3c-2.1-6.3,1.4-11.9,8.6-12.3c8.4-0.5,16.8-0.2,25.2-0.2c12.6,0,25.2-0.2,37.8,0c5.4,0,7.4-2.3,7.4-7.5  c-0.1-24,0-48,0-72c0-1.5-0.9-3-1.4-4.5c-1.3,1.2-3,2.1-4,3.5c-9.7,15.1-19.2,30.3-28.8,45.6c-2.3,3.5-4.4,7.1-7,10.4  c-3.1,4-7.2,4.2-11.1,1.5c-3.7-2.6-6-5.9-3.1-10.6c0.9-1.5,1.7-3.2,2.7-4.7c17.7-27.8,35.4-55.6,53.2-83.3c1.3-2,2.6-4.1,4.3-5.7  c5-4.5,12.4-2.1,13.7,4.7c0.8,4.1,0.4,8.4,0.4,12.6c0,33,0,66,0.1,99c0.1,10.8,0.3,10.9,10.8,11.1c7.2,0.2,14.4,0,21.6,0.1  c5.5,0,9.3,2.5,10,8.2c0.6,5.1-3.6,9.1-10.6,9.4c-8.4,0.4-16.8,0.1-25.2,0.1c-4.3,0-6.7,1.8-6.6,6.3c0,5.4,0,10.8,0,16.2  c0,29.5,0,85.2,0,122.6c10.1,1.8,20.4,2.7,31,2.7c99.4,0,180-80.6,180-180C360,143.1,348.9,108.8,329.9,80.3z M268.4,285  c-11.5,8.4-24.8,11.5-38.9,12.9c-15.5-1.4-30.5-4.7-43.2-15c-12.5-10.1-18.1-23.5-18.4-39.2c-0.2-9.1,4-14.1,10.6-13.7  c7.7,0.5,9.2,5.8,9.9,12.4c3.6,32,36.7,47.6,63.6,30.1c17.1-11.1,21-30.7,7.8-46.2c-6-7.1-14.4-12.4-22.3-17.7  C226,201,214,194.4,202.4,187c-10.4-6.6-18-15.6-22.2-27.4c-7.6-21-0.3-41.5,19.5-52c20-10.7,40.4-10.1,60.1,0.6  c15.7,8.5,22.7,24.8,20.1,42.6c-2.2,14.7-8.6,27.4-18.7,38.1c-5.3,5.6-4,8.7,1.8,12.4c4.5,2.9,8.7,6.4,12.4,10.3  C296.8,234,293.7,266.7,268.4,285z"></path></svg>